<?xml version="1.0" encoding="UTF-8"?>
<svg id="Layer_1" data-name="Layer 1" xmlns="http://www.w3.org/2000/svg" viewBox="0 0 597 50">
  <defs>
    <style>
      .cls-1 {
        fill: #ba1f40;
      }

      .cls-1, .cls-2, .cls-3, .cls-4 {
        stroke-width: 0px;
      }

      .cls-2 {
        fill: #bb0e3d;
      }

      .cls-3 {
        fill: #606061;
      }

      .cls-4 {
        fill: #fff;
      }
    </style>
  </defs>
  <g>
    <path class="cls-1" d="M57.7,5.99c-.92-1.32-2.37-2.24-3.95-2.24h-3.55l11.97,21.18-11.97,21.18h3.55c1.71,0,3.16-.92,3.95-2.24l10.53-18.95-10.53-18.95Z"/>
    <path class="cls-3" d="M58.88,24.93L47.17,3.75H4.67C2.04,3.75.07,5.86.07,8.36v33.29c0,2.5,1.97,4.61,4.61,4.61h42.5l11.71-21.32Z"/>
    <rect class="cls-4" x="25.2" y="15.59" width="3.16" height="18.82"/>
    <polygon class="cls-4" points="18.88 15.59 18.88 29.28 10.2 15.59 7.17 15.59 7.17 34.41 10.2 34.41 10.2 20.59 18.88 34.41 22.04 34.41 22.04 15.59 18.88 15.59"/>
    <polygon class="cls-4" points="43.22 15.59 43.22 23.36 34.54 23.36 34.54 15.59 31.38 15.59 31.38 34.41 34.54 34.41 34.54 26.51 43.22 26.51 43.22 34.41 46.38 34.41 46.38 15.59 43.22 15.59"/>
  </g>
  <g>
    <path class="cls-3" d="M78.25,33.88c0-3.43,2.67-5.97,6.32-5.97s6.32,2.52,6.32,5.97-2.69,5.97-6.32,5.97-6.32-2.54-6.32-5.97ZM88.18,33.88c0-2.19-1.55-3.69-3.61-3.69s-3.61,1.5-3.61,3.69,1.55,3.69,3.61,3.69,3.61-1.5,3.61-3.69Z"/>
    <path class="cls-3" d="M101.79,34.57v5.08h-2.57v-4.68c0-1.44-.66-2.09-1.8-2.09-1.24,0-2.13.76-2.13,2.39v4.39h-2.57v-8.87h2.46v1.04c.69-.76,1.73-1.17,2.94-1.17,2.09,0,3.68,1.22,3.68,3.93Z"/>
    <path class="cls-3" d="M103.56,35.22c0-2.67,2.06-4.57,4.95-4.57,1.86,0,3.33.81,3.98,2.26l-2,1.07c-.48-.84-1.19-1.22-2-1.22-1.3,0-2.33.91-2.33,2.46s1.02,2.46,2.33,2.46c.81,0,1.52-.36,2-1.22l2,1.09c-.64,1.42-2.11,2.24-3.98,2.24-2.89,0-4.95-1.9-4.95-4.57Z"/>
    <path class="cls-3" d="M113.19,35.22c0-2.67,2.06-4.57,4.88-4.57s4.87,1.9,4.87,4.57-2.04,4.57-4.87,4.57-4.88-1.9-4.88-4.57ZM120.33,35.22c0-1.53-.97-2.46-2.26-2.46s-2.28.92-2.28,2.46.99,2.46,2.28,2.46,2.26-.92,2.26-2.46Z"/>
    <path class="cls-3" d="M124.66,27.42h2.57v12.24h-2.57v-12.24Z"/>
    <path class="cls-3" d="M128.97,35.22c0-2.67,2.06-4.57,4.88-4.57s4.87,1.9,4.87,4.57-2.05,4.57-4.87,4.57-4.88-1.9-4.88-4.57ZM136.11,35.22c0-1.53-.97-2.46-2.26-2.46s-2.28.92-2.28,2.46.99,2.46,2.28,2.46,2.26-.92,2.26-2.46Z"/>
    <path class="cls-3" d="M149.59,30.78v7.39c0,3.3-1.78,4.82-4.98,4.82-1.68,0-3.32-.41-4.35-1.22l1.02-1.85c.76.61,2,1.01,3.13,1.01,1.81,0,2.61-.82,2.61-2.42v-.38c-.68.74-1.65,1.11-2.8,1.11-2.46,0-4.44-1.7-4.44-4.29s1.98-4.29,4.44-4.29c1.24,0,2.26.41,2.94,1.27v-1.14h2.44ZM147.05,34.94c0-1.3-.97-2.18-2.33-2.18s-2.34.87-2.34,2.18.99,2.18,2.34,2.18,2.33-.87,2.33-2.18Z"/>
    <path class="cls-3" d="M160.79,30.78l-4.01,9.42c-.86,2.14-2.08,2.79-3.68,2.79-.91,0-1.9-.3-2.47-.81l.94-1.83c.4.35.94.56,1.45.56.71,0,1.11-.31,1.45-1.1l.03-.08-3.84-8.94h2.66l2.49,6.02,2.51-6.02h2.47Z"/>
    <path class="cls-3" d="M174.3,37.18h-5.36l-1.02,2.47h-2.74l5.15-11.55h2.64l5.16,11.55h-2.8l-1.02-2.47ZM173.46,35.15l-1.83-4.42-1.83,4.42h3.66Z"/>
    <path class="cls-3" d="M187.93,30.78v8.87h-2.44v-1.06c-.68.78-1.67,1.19-2.75,1.19-2.23,0-3.79-1.25-3.79-3.99v-5.01h2.57v4.63c0,1.48.66,2.14,1.8,2.14s2.04-.76,2.04-2.39v-4.39h2.57Z"/>
    <path class="cls-3" d="M196.05,39.23c-.53.38-1.3.56-2.09.56-2.09,0-3.32-1.07-3.32-3.18v-3.65h-1.37v-1.98h1.37v-2.16h2.57v2.16h2.21v1.98h-2.21v3.61c0,.76.41,1.17,1.1,1.17.38,0,.76-.12,1.04-.33l.69,1.81Z"/>
    <path class="cls-3" d="M196.57,35.22c0-2.67,2.06-4.57,4.88-4.57s4.87,1.9,4.87,4.57-2.05,4.57-4.87,4.57-4.88-1.9-4.88-4.57ZM203.71,35.22c0-1.53-.97-2.46-2.26-2.46s-2.28.92-2.28,2.46.99,2.46,2.28,2.46,2.26-.92,2.26-2.46Z"/>
    <path class="cls-3" d="M223.03,34.57v5.08h-2.57v-4.68c0-1.44-.64-2.09-1.68-2.09-1.16,0-1.96.74-1.96,2.33v4.45h-2.57v-4.68c0-1.44-.61-2.09-1.68-2.09-1.14,0-1.95.74-1.95,2.33v4.45h-2.57v-8.87h2.46v1.02c.66-.76,1.65-1.15,2.79-1.15,1.24,0,2.29.48,2.92,1.45.71-.91,1.86-1.45,3.2-1.45,2.11,0,3.63,1.22,3.63,3.93Z"/>
    <path class="cls-3" d="M233.19,34.59v5.06h-2.41v-1.1c-.48.81-1.4,1.24-2.71,1.24-2.08,0-3.32-1.15-3.32-2.69s1.1-2.66,3.81-2.66h2.05c0-1.1-.66-1.75-2.05-1.75-.94,0-1.91.31-2.56.82l-.92-1.8c.97-.69,2.41-1.07,3.83-1.07,2.71,0,4.27,1.25,4.27,3.94ZM230.62,36.85v-.91h-1.76c-1.2,0-1.58.45-1.58,1.04,0,.64.54,1.07,1.45,1.07.86,0,1.6-.4,1.9-1.2Z"/>
    <path class="cls-3" d="M241.25,39.23c-.53.38-1.3.56-2.09.56-2.09,0-3.32-1.07-3.32-3.18v-3.65h-1.37v-1.98h1.37v-2.16h2.57v2.16h2.21v1.98h-2.21v3.61c0,.76.41,1.17,1.11,1.17.38,0,.76-.12,1.04-.33l.69,1.81Z"/>
    <path class="cls-3" d="M251.06,35.94h-6.71c.25,1.11,1.19,1.78,2.54,1.78.94,0,1.62-.28,2.23-.86l1.37,1.48c-.82.94-2.06,1.44-3.66,1.44-3.07,0-5.06-1.93-5.06-4.57s2.03-4.57,4.73-4.57,4.62,1.75,4.62,4.6c0,.2-.03.48-.05.69ZM244.32,34.44h4.37c-.18-1.12-1.02-1.85-2.18-1.85s-2.01.71-2.19,1.85Z"/>
    <path class="cls-3" d="M261.87,27.42v12.24h-2.46v-1.02c-.64.77-1.58,1.15-2.77,1.15-2.51,0-4.44-1.78-4.44-4.57s1.93-4.57,4.44-4.57c1.09,0,2.01.35,2.66,1.07v-4.31h2.57ZM259.35,35.22c0-1.53-.99-2.46-2.26-2.46s-2.28.92-2.28,2.46.99,2.46,2.28,2.46,2.26-.92,2.26-2.46Z"/>
    <path class="cls-3" d="M276.46,39.65l-2.23-3.22h-2.46v3.22h-2.67v-11.55h5c3.08,0,5.01,1.6,5.01,4.19,0,1.73-.87,3-2.38,3.65l2.59,3.71h-2.87ZM273.95,30.29h-2.18v4.02h2.18c1.63,0,2.46-.76,2.46-2.01s-.82-2.01-2.46-2.01Z"/>
    <path class="cls-3" d="M289.69,35.94h-6.71c.25,1.11,1.19,1.78,2.54,1.78.94,0,1.62-.28,2.23-.86l1.37,1.48c-.83.94-2.06,1.44-3.66,1.44-3.07,0-5.06-1.93-5.06-4.57s2.03-4.57,4.73-4.57,4.62,1.75,4.62,4.6c0,.2-.03.48-.05.69ZM282.94,34.44h4.37c-.18-1.12-1.02-1.85-2.18-1.85s-2.01.71-2.19,1.85Z"/>
    <path class="cls-3" d="M301.12,35.22c0,2.79-1.93,4.57-4.42,4.57-1.11,0-2.01-.35-2.67-1.07v4.14h-2.57v-12.07h2.46v1.02c.64-.78,1.6-1.15,2.79-1.15,2.49,0,4.42,1.78,4.42,4.57ZM298.52,35.22c0-1.53-.97-2.46-2.26-2.46s-2.26.92-2.26,2.46.97,2.46,2.26,2.46,2.26-.92,2.26-2.46Z"/>
    <path class="cls-3" d="M302.18,35.22c0-2.67,2.06-4.57,4.88-4.57s4.87,1.9,4.87,4.57-2.05,4.57-4.87,4.57-4.88-1.9-4.88-4.57ZM309.32,35.22c0-1.53-.97-2.46-2.26-2.46s-2.28.92-2.28,2.46.99,2.46,2.28,2.46,2.26-.92,2.26-2.46Z"/>
    <path class="cls-3" d="M319.16,30.65v2.38c-.21-.02-.38-.03-.58-.03-1.42,0-2.36.78-2.36,2.47v4.19h-2.57v-8.87h2.46v1.17c.63-.86,1.68-1.3,3.05-1.3Z"/>
    <path class="cls-3" d="M326.73,39.23c-.53.38-1.3.56-2.09.56-2.09,0-3.32-1.07-3.32-3.18v-3.65h-1.37v-1.98h1.37v-2.16h2.57v2.16h2.21v1.98h-2.21v3.61c0,.76.41,1.17,1.11,1.17.38,0,.76-.12,1.04-.33l.69,1.81Z"/>
    <path class="cls-3" d="M327.87,28.11c0-.81.64-1.44,1.6-1.44s1.6.59,1.6,1.39c0,.86-.64,1.48-1.6,1.48s-1.6-.63-1.6-1.44ZM328.19,30.78h2.57v8.87h-2.57v-8.87Z"/>
    <path class="cls-3" d="M342.22,34.57v5.08h-2.57v-4.68c0-1.44-.66-2.09-1.8-2.09-1.24,0-2.13.76-2.13,2.39v4.39h-2.57v-8.87h2.46v1.04c.69-.76,1.73-1.17,2.94-1.17,2.09,0,3.68,1.22,3.68,3.93Z"/>
    <path class="cls-3" d="M353.81,30.78v7.39c0,3.3-1.78,4.82-4.98,4.82-1.68,0-3.32-.41-4.35-1.22l1.02-1.85c.76.61,2,1.01,3.13,1.01,1.81,0,2.61-.82,2.61-2.42v-.38c-.68.74-1.65,1.11-2.8,1.11-2.46,0-4.44-1.7-4.44-4.29s1.98-4.29,4.44-4.29c1.24,0,2.26.41,2.94,1.27v-1.14h2.44ZM351.27,34.94c0-1.3-.97-2.18-2.33-2.18s-2.34.87-2.34,2.18.99,2.18,2.34,2.18,2.33-.87,2.33-2.18Z"/>
    <path class="cls-3" d="M360.15,38.52l.91-2.01c.97.71,2.42,1.2,3.81,1.2,1.58,0,2.23-.53,2.23-1.24,0-2.16-6.71-.68-6.71-4.96,0-1.96,1.58-3.6,4.87-3.6,1.45,0,2.94.35,4.01,1.02l-.82,2.03c-1.07-.61-2.18-.91-3.2-.91-1.58,0-2.19.59-2.19,1.32,0,2.13,6.71.66,6.71,4.9,0,1.93-1.6,3.58-4.9,3.58-1.83,0-3.68-.54-4.7-1.34Z"/>
    <path class="cls-3" d="M380.04,30.78l-4.01,9.42c-.86,2.14-2.08,2.79-3.68,2.79-.91,0-1.9-.3-2.47-.81l.94-1.83c.4.35.94.56,1.45.56.71,0,1.11-.31,1.45-1.1l.03-.08-3.84-8.94h2.66l2.49,6.02,2.51-6.02h2.47Z"/>
    <path class="cls-3" d="M380.11,38.83l.86-1.85c.79.51,2,.86,3.08.86,1.19,0,1.63-.31,1.63-.81,0-1.45-5.36.03-5.36-3.51,0-1.68,1.52-2.87,4.11-2.87,1.22,0,2.57.28,3.41.78l-.86,1.83c-.87-.5-1.75-.66-2.56-.66-1.15,0-1.65.36-1.65.82,0,1.52,5.36.05,5.36,3.55,0,1.65-1.53,2.82-4.19,2.82-1.5,0-3.02-.41-3.84-.96Z"/>
    <path class="cls-3" d="M395.45,39.23c-.53.38-1.3.56-2.09.56-2.09,0-3.32-1.07-3.32-3.18v-3.65h-1.37v-1.98h1.37v-2.16h2.57v2.16h2.21v1.98h-2.21v3.61c0,.76.41,1.17,1.1,1.17.38,0,.76-.12,1.04-.33l.69,1.81Z"/>
    <path class="cls-3" d="M405.27,35.94h-6.71c.25,1.11,1.19,1.78,2.54,1.78.94,0,1.62-.28,2.23-.86l1.37,1.48c-.82.94-2.06,1.44-3.66,1.44-3.07,0-5.06-1.93-5.06-4.57s2.03-4.57,4.73-4.57,4.62,1.75,4.62,4.6c0,.2-.03.48-.05.69ZM398.52,34.44h4.37c-.18-1.12-1.02-1.85-2.18-1.85s-2.01.71-2.19,1.85Z"/>
    <path class="cls-3" d="M422.03,34.57v5.08h-2.57v-4.68c0-1.44-.64-2.09-1.68-2.09-1.15,0-1.96.74-1.96,2.33v4.45h-2.57v-4.68c0-1.44-.61-2.09-1.68-2.09-1.14,0-1.95.74-1.95,2.33v4.45h-2.57v-8.87h2.46v1.02c.66-.76,1.65-1.15,2.79-1.15,1.24,0,2.29.48,2.92,1.45.71-.91,1.86-1.45,3.2-1.45,2.11,0,3.63,1.22,3.63,3.93Z"/>
  </g>
  <g id="NCI">
    <path class="cls-2" d="M84.91,10.17h1.94v8.69h-1.94l-4.14-5.45v5.45h-1.94v-8.69h1.82l4.26,5.59v-5.59Z"/>
    <path class="cls-2" d="M95.18,18.86l-.81-1.88h-3.64l-.81,1.88h-2.06l3.76-8.69h1.88l3.76,8.69h-2.06ZM92.56,12.75l-1.09,2.52h2.18l-1.08-2.52Z"/>
    <path class="cls-2" d="M101.3,11.84v7.01h-1.94v-7.01h-2.46v-1.68h6.86v1.68h-2.46Z"/>
    <path class="cls-2" d="M105.18,10.17h1.94v8.69h-1.94v-8.69Z"/>
    <path class="cls-2" d="M116.57,17.66c-.88.86-1.96,1.29-3.25,1.29s-2.37-.43-3.25-1.29c-.88-.86-1.32-1.93-1.32-3.2s.44-2.34,1.32-3.2c.88-.86,1.96-1.29,3.25-1.29s2.37.43,3.25,1.29c.88.86,1.32,1.93,1.32,3.2s-.44,2.34-1.32,3.2ZM115.91,14.46c0-.77-.25-1.44-.75-1.98-.5-.55-1.11-.82-1.83-.82s-1.34.27-1.83.82-.75,1.21-.75,1.98.25,1.43.75,1.98c.5.54,1.11.81,1.83.81s1.34-.27,1.83-.81c.5-.54.75-1.2.75-1.98Z"/>
    <path class="cls-2" d="M125.61,10.17h1.94v8.69h-1.94l-4.14-5.45v5.45h-1.94v-8.69h1.82l4.26,5.59v-5.59Z"/>
    <path class="cls-2" d="M135.88,18.86l-.81-1.88h-3.64l-.81,1.88h-2.06l3.76-8.69h1.88l3.76,8.69h-2.06ZM133.25,12.75l-1.09,2.52h2.18l-1.08-2.52Z"/>
    <path class="cls-2" d="M138.95,18.86v-8.69h1.94v6.96h3.71v1.73h-5.65Z"/>
    <path class="cls-2" d="M153.28,17.14c.95,0,1.73-.38,2.34-1.13l1.24,1.28c-.99,1.11-2.15,1.67-3.49,1.67s-2.44-.42-3.31-1.27c-.87-.85-1.3-1.91-1.3-3.2s.44-2.36,1.32-3.23c.88-.86,1.96-1.29,3.24-1.29,1.43,0,2.62.54,3.58,1.63l-1.21,1.37c-.61-.76-1.38-1.14-2.29-1.14-.73,0-1.35.24-1.87.71-.52.48-.78,1.12-.78,1.93s.24,1.46.73,1.95c.49.49,1.08.73,1.78.73Z"/>
    <path class="cls-2" d="M164.52,18.86l-.81-1.88h-3.64l-.81,1.88h-2.06l3.76-8.69h1.88l3.76,8.69h-2.06ZM161.9,12.75l-1.09,2.52h2.18l-1.08-2.52Z"/>
    <path class="cls-2" d="M173.68,10.17h1.94v8.69h-1.94l-4.14-5.45v5.45h-1.94v-8.69h1.82l4.26,5.59v-5.59Z"/>
    <path class="cls-2" d="M181.74,17.14c.95,0,1.73-.38,2.34-1.13l1.24,1.28c-.99,1.11-2.15,1.67-3.49,1.67s-2.44-.42-3.31-1.27c-.87-.85-1.3-1.91-1.3-3.2s.44-2.36,1.32-3.23c.88-.86,1.96-1.29,3.24-1.29,1.43,0,2.62.54,3.58,1.63l-1.21,1.37c-.61-.76-1.38-1.14-2.29-1.14-.73,0-1.35.24-1.87.71-.52.48-.78,1.12-.78,1.93s.24,1.46.73,1.95c.49.49,1.08.73,1.78.73Z"/>
    <path class="cls-2" d="M193.12,10.17v1.73h-4.33v1.79h3.89v1.65h-3.89v1.8h4.46v1.72h-6.4v-8.69h6.27Z"/>
    <path class="cls-2" d="M202.04,13.05c0,1.39-.55,2.29-1.65,2.7l2.2,3.11h-2.39l-1.93-2.77h-1.34v2.77h-1.94v-8.69h3.3c1.35,0,2.32.23,2.89.68s.86,1.19.86,2.2ZM199.7,14.08c.24-.22.36-.56.36-1.03s-.12-.79-.37-.96-.68-.26-1.31-.26h-1.45v2.57h1.42c.66,0,1.11-.11,1.36-.32Z"/>
    <path class="cls-2" d="M207.31,10.17h1.94v8.69h-1.94v-8.69Z"/>
    <path class="cls-2" d="M217.47,10.17h1.94v8.69h-1.94l-4.14-5.45v5.45h-1.94v-8.69h1.82l4.26,5.59v-5.59Z"/>
    <path class="cls-2" d="M223.58,11.9c-.19.15-.28.36-.28.61s.11.45.34.6c.23.15.75.32,1.58.53s1.47.51,1.92.91c.46.41.68,1,.68,1.78s-.29,1.41-.88,1.9-1.35.73-2.31.73c-1.38,0-2.62-.51-3.72-1.53l1.16-1.42c.94.82,1.8,1.23,2.6,1.23.36,0,.64-.08.84-.23.2-.15.31-.36.31-.62s-.11-.47-.32-.62-.64-.31-1.28-.47c-1.01-.24-1.75-.55-2.22-.94s-.7-.99-.7-1.82.3-1.46.89-1.91c.59-.45,1.33-.67,2.22-.67.58,0,1.16.1,1.74.3.58.2,1.09.48,1.52.85l-.98,1.42c-.75-.57-1.53-.86-2.34-.86-.32,0-.58.08-.76.23Z"/>
    <path class="cls-2" d="M233.08,11.84v7.01h-1.94v-7.01h-2.46v-1.68h6.86v1.68h-2.46Z"/>
    <path class="cls-2" d="M236.96,10.17h1.94v8.69h-1.94v-8.69Z"/>
    <path class="cls-2" d="M244.72,11.84v7.01h-1.94v-7.01h-2.46v-1.68h6.86v1.68h-2.46Z"/>
    <path class="cls-2" d="M250.9,16.61c.32.4.76.6,1.31.6s.98-.2,1.3-.6c.32-.4.48-.95.48-1.65v-4.8h1.94v4.86c0,1.26-.35,2.23-1.04,2.9-.7.68-1.59,1.01-2.67,1.01s-1.98-.34-2.68-1.02-1.05-1.65-1.05-2.9v-4.86h1.94v4.8c0,.7.16,1.24.48,1.65Z"/>
    <path class="cls-2" d="M261.62,11.84v7.01h-1.94v-7.01h-2.46v-1.68h6.86v1.68h-2.46Z"/>
    <path class="cls-2" d="M271.77,10.17v1.73h-4.33v1.79h3.89v1.65h-3.89v1.8h4.46v1.72h-6.4v-8.69h6.27Z"/>
  </g>
  <text/>
</svg>